<mxfile host="65bd71144e">
    <diagram id="MBFDAgmiJ1lH9rsBXVY1" name="Page-1">
        <mxGraphModel dx="1060" dy="771" grid="1" gridSize="10" guides="1" tooltips="1" connect="1" arrows="1" fold="1" page="1" pageScale="1" pageWidth="850" pageHeight="1100" math="0" shadow="0">
            <root>
                <mxCell id="0"/>
                <mxCell id="1" parent="0"/>
                <mxCell id="2" value="" style="shape=image;verticalLabelPosition=bottom;labelBackgroundColor=default;verticalAlign=top;aspect=fixed;imageAspect=0;image=data:image/png,iVBORw0KGgoAAAANSUhEUgAAAEAAAABACAYAAACqaXHeAAAAAXNSR0IArs4c6QAADtdJREFUeAHtmHtUjXn7xsfe7Q4m/GbeYQavGRkG4zBGklQU0QFFJEqRFIMinVWETlIxaDBMRY4ph3QYpJpBDqPSgSmHSHKaGYcxB2a8Pu96nt3W3mTWvHv++63dWte6v9/7e933fT1Xz37Ws/cbb2j+NA5oHNA4oHFA44DGAY0DGgc0Dmgc0DigcUDjgMYBjQMaB/7agavlqT1Kc5fXfLvZ8/nVU+nPGysPPGusPKiC21UHn9Wf2fLsduXG55ePJTxvrFI9f5nfUg9lTl1R1POK/Jg/G8oy/qOcV6wvnUh9vi1yYk19eWr8X6v/h6dAq8jISEnEMN3GCzucubhziip2CXtnHt2u4Y/fH1KxxYGLu6bw/cu81+6niv1U+E31tblxPP3tPpWpk1RnCr12TaEizRE/o39ZZWRkSCFS8g8v9dXyH2t3nSk/FPNgsfmbj1baaVMS1ZOSaCVE9aIkuhfXiuO4enITeX7dVM+Vua+sP/prblRPTkb15GpBHIc3+1MYatDC/J6kz+pA7fF1d0oPRdVcKErWf/Uq1Mxcyp4QcLNwOinzB7DESkfERtf2fB1owNcBBvIYaMBu7w+4WejGkeUm5Ad+8CIv8gSuOlDqv8ezI42F7lzYNY68F/muHA40ID/QgNWT3iLEXFfkNBS4PlXzclXLiIyU3Cl05naBEwFDpIQNl7DYQiJGYR1uISHWVocvJr3JjTxH7hU7s9auNVle7cjybkuW1+vQ7i/Ommsym3pkercj1UWfBOfuNBx2xHdIW8KGy/UIOhQIHy4h2LI9d4sm03B4Yrrq1aixu3dq1uLSrZOImdydmNESopUQ1bSOspbg2VebuydmU7LFgeVWUuJstPhiooztblrs9dAm00PG3hYg5F8+E/YZM2RsnSpjjYMWMdZaKGbNM9Ti1rezqcv3YNlIqYoehbYlI7S4/Y03jYUzIcNJqsZlN5c8rVny659XljGjn4woW70m6BJl24xoW11WzhjAs8vLmGf+3iu8Fba6CBBqou10iR2rS/w4PeLtddkX/BFxY/WIsdMTOXKefC2fp5gjzNZlmbUuJeluPLsciUd/HSUdqtr8bbry7FIkjyrD/ZqvRo3Vk8rF1B/1IdxCm1gbGXEtYMVoLc6kT+NJxWImddNS4awU+fKcUL9helcuFkVzr3YdTx6uJidpAvWnvLhTGs7N0/EUrhtDrHXLcxSz/Sy78FOJP95DOxBro6MyT8Fx/1jGk8owfi0N/kGNy5aXVO5weas2fTKpC4zxHyolwFRKgLmUADMp/qYS+d5UyhxDGfX7p3G/wIupvWT4CzzFuZmUQHEvJd6lI7/eiyDNrQtFEf0pijflbk0ctfs8SA8Zy7YZncldMYq6/PkEmGq96C/ObZot9BrfTYdr+6exea4RAaYyuSbhvEmjoM17oDZXMqdx/+hM1DagaqP9oPrtDjw6G8D9ygjuf+fL7WJ36nPsubTfnsZjM7lXEsT98/H8eX07T+u2cfdsFNePzefCfkfKd4ykPNWCso1mnF9rzA8VYWR4f0hJdF8qk4dwZIkx6R4fkOHZnVtFS8kO6s726Z0pX9qXzAW9Kf9qGOXbRnA+0466I17cOhXBgwsb+OXydh5Vfc7D0iXcKppNfd5ErmbbcPPYFH48NYefK0P5+XwYjbnTadhuj/AgV8uE83GGZj/kTefx2YX8Wh7M/eNe3Mxz4vLuEZRtHkbdPieu53rReDSIW99Ec7NwBTUHfDm3bTLfJFuQEzOQ/BUDORTRn7MpjqT7mZIT0J/8iE84HDWQk1scWevamz1hdqwf+y6x9h34akZnIkzakOnajvXTupIfN4i8lSacTplA9V4vrn0dzq1v4ri4z5fruXO4un8ql3bbULN9GPUHx3GvcDq/nPPjt7Jgbh6aQcPO8eo/CK+njx765Psl/FEbQe1Bd+6XzOB2gSP1udbkRQ3gRu5obuRYcyNnNHUHR3Fl3yjqc0ZTL+RyraneYcGdIldqstzY4mpAXYodVWvMaDgwgYY8O+4Uz6J202h+uZLO2RX9+dL13xRH9eHIoq5kfdaZGMs2Yp/K9OHirPrcpt451hSsNGyabU3jkYncKZrOtcNePCxdzC9VK3lSm8zJNF8enomiJMNJT6074MoGS9Orm0ZSmeHO6TRHTmyypnjtMI4mGFGQOFgehfUqIy5vM+VyuhnHEo04usqIggQjcV28biQnNjtxZqsnG6Z+RPGc9twrcBONPDq3Czs9u7DGqi0nl/VkX/BATqzqT8q0TqywbEdBwuCmPvIo9BVQmGjElXRTziSbiJzCNcP4NtmaE5smUPKVC6e3enJ2hw912b5c3WRFSZKaBlxIMDb7PsmEYPN27AkcRGbwIPYGDyIzSL5WxK2f9eKET3tOL2jP9F4SMkOMmjkCv6kuK9iIWKv2RI9sy+cT27Pe+T2ix77LZq8PyY/5lORZ3Uic0JnI4W+TGTJY3kOYpYQvp3fBo7eUMws6ED+qDRlBA8kMNiIz2FCcI65DjPjCpQNZc3sh6FfbgPNh3cw2OXQkcKg+MTYyCmKGUBxv9gr2BfbhyKx2fDu3HW69JBSvepWjqCuMMyFtWidSpnTmq6mdyIsdT270CPF2T5nSkVSXThxZMfiVGYr6rXO6MqO3lORR+sSNbN2kyZTi+GbkRw4ixlbGbo8upEzqREmSiXofgTM+Hc1P+75D4GDFi4weKR6dyAnsQU6QgO4its/pzEn/jpwJ6ohbby1yA+V5xfnLMVeoC+zOIf8P2RvYnxTX98gV+gl1gR+K9SKnqb9y/Zbp7+LxsYzTgZ2It2lLtn+3Jh1CfQ+2ef37xctRulNbTvm+Q4mfugaEdjQ/5f8uoUP1SLTXJ9G+DUkCHN4kY24ncha9L2LX7I6URBhwNtIA777aL/KK89fFQ35d+Ny9F+Hj+5Pt1+Vv1aVNb8+cT3Q5u8yA1Q5vk72wC4cWvU/2wvf53LFts04HfXa4vIWgX/07YLmBuXBRC431CDWXEDq8FaHDFJAQOkxCwlhd1jrqcyqmF+fiP2ZKdwlpbm1Im9aGrUpQ7IWoAtc2pLjok+amr5p/mSfs3dqQME4H955a4qyV9h3Y6KTPEkstJV1yfSHmrdg2o6P4T1H7GXAu4WOzc4l9iBiuzyq7ViS8BvG2rTi7ZgDl6wcyp5+E3R46InYpRWH9MgSecu7l/atn2mx00mLeAJk4a93kjiTYSVS0Jdq9Ie5X2kjYO+8DShP7/oOH4KZPzNa5vs9Sq/9jpZ1WE2SstFNFrK2M42sGUbbJhM/6SYmz0xKxaqyMteNlbHSSkTJFxlYXbdJdZaS76pA+TYjCXo5tQnSRsc1VxjYXGWkuMlKctdk4SZs142XEj9GWzx0jY/6n2mxwN2C9Wxd5foyqHkHfilHaZAX25EvPD9U3oHq7uWnVLkuCRr5F8HBtQiy0CRWh0xTle+GsLN2C6t0jce8pU+LJz5vrmvdC7nWQz1DMUo0hljJm9tOhavdI1rgbEGKpei7UCn3nD9Zib9gnCPrVfhG6luc45NoRZ+Ic3iV6lIwkBxmr7WUkNUGxThwn43LuJK4ddsLvU4kKR8H936LWixlCnTjHoWmugzaBxnrUHXYmde7HJDloq3AVc4IGa3E4wZy6I87qG/Do7FyjB+cWsmJcZ/HWjrCUEN4SLCTcO+nDg3ML8Or9Gk5Ldf9TTirOjrCUMu9TPQRdaQuMCLeU8rIuYe/ZS0pxsoOoqSTDT733gF+r/AY9vRhOrOMHzOkrZbmVhGUtIHKkhIflQTy5GM7cfi1zWqr7u7lIlZlSFg56U5y1I9CUSCvpK5qE3Jw+Uk5umczTi2E0lKhpwJ3jbsZ7w01JmtQJf0MpCWObb3/FrSbEhHEyLuW50nBsBgGDpCTZq97Cyty/t359vfBxCzXVY3+EGTv9Pmnx4xY9WibqFb4fZEeNQO07oOagrWlttj3Bo/6Faw8J7r0l+AyR4jNEiM2YbyylMtOWmgNjcOnxRouc5rpX65V7Kdbzlfor52YPlOLRT4eag2NZM7MHvi/p8R0iwfUjCS49JOxbYYygX+2HYHWWpWl1ljWrJr5DsLG2iAT7N8U3QeFt8AXsW1OxxwqBG2ysQ4yNXvOZMu+frse3JsREhzDz1lRn2ZD6WXcSx+uLs1Y39Y61bU2wsUzUmhvzqcir2BVgrNbXYbkBNkTavMXsPhIR3n0khJhJEN60FAg2b8X5XYIBNi84wQqOWTNPwRdiqFK9cv6v1guN5Bp8DLVFs7/w7EaweZMWs1YIMwV9Cq37lxlyIcuGo5t8zf6RAUmObxNqLFGClFhr4ZkgvApLWDVGSsVOK6r3jn7BWWwsJd6umaPgqhMTx0lYZiFlcZOGJeY64qzUuQYkjJXPiLdT1icRuXkxhuI/5fxONQ0ozzI3/cqnF3EOb+Nn2ErEIsNWCBD2iwylhJpJiLCQcnqdMaWbTF/wFHx/IwmLzaQssZSy9G+gmSchbJiEwCGSl3q+QbCJjBTv7mye2UXsG2T8KkeYfyh6AOkBfTm+eZahWnfAhX1WZsLnuiyqHxUJxnz/hQVXUu2o3zORmwemca/AmwclC3hcHsIftUt5Uh3Kg7M+/HjSm7tF7jQedaY+14GrB0Zz9YAN13MduZ7vyq1jXtz51lf8QfWn75bz4PwqHlWv53FtCo9r0/ixYj0/lsZxu2QpDUWLxJ+6arKnUpVlT/kuK8rSR1AhIGU4ZV+aUrbBlPLkIZSvHUx5khFlqwZRGjeQsqTB4kelYveiIWoZUJk1elhpRHcqY/pRnTiYK1+O4MaOcdzeP4Xvtzvx8wkffi8P4lntMv64HCX+dvhbdQCPy3x4cNqTa3kTuV0wkRt5tjTkj+FWgRN1eS78UDKP+98F8nP5UhpPLuX3S8n8UZfKfxr28J+bmfxUsYHHF9fxU3kMd0+HcDHbk7oj7tQccqQ604aqPaP4Zt1QqtItqUodTtWWYVRuNKUy2YSqtcZUrTaiIsGQ42F9qUwyIid57lC1DNAUaRzQOKBxQOOAxgGNAxoHNA5oHNA4oHFA44DGgf+fDvwXunTWQG1JGjMAAAAASUVORK5CYII=;" vertex="1" parent="1">
                    <mxGeometry x="140" y="160" width="64" height="64" as="geometry"/>
                </mxCell>
                <mxCell id="3" value="" style="shape=image;verticalLabelPosition=bottom;labelBackgroundColor=default;verticalAlign=top;aspect=fixed;imageAspect=0;image=data:image/png,iVBORw0KGgoAAAANSUhEUgAAAEAAAAA/CAYAAABQHc7KAAAAAXNSR0IArs4c6QAAG69JREFUeAHVmwdUlMm2tlvG0TErErsJBtQxjjkrOoiKYkRBEBUTwYAJRBAEQTJKVBQUVAQzmDMgSs5BMCtmMY8Bif3c1R9zz5n//DozZ3TO8fZatbq6vvqq9vvW3lW7qnaLRP8HPhTYNOFRSGDtHddq7q69DaJ6/wfE/joi8iIu/VXqcp4f0kRaOJOKy8Mhs105p0QNv04P33Ar3AxqWF7iAcVG3N6jS5abMlxfSlW8mJcntD98w6J/HdF4Gef85mgHKNvB652tpPcOjO5D8RyklxrxMES+8uv08g23wrOoitq0QbxLt0CarR9Xnj0rX5o7jtrcseQ6qnp8w6L/UzRydQ6SoXuG01rO1fubjykPb6T2ZyYxnh1QKc9eDPd9eX+oJRTbqlA0g+qkrjzfo0fqCrVG/+zlG85RFvWqOtuI6qLFVKaNoiKhBc9DJFXlu0SS3xObF/viPsQ2hXuevL2gU1OeOjWDvLFIsweTvFTy7Pfe/aae8eqcVHrPFd7E/jO9PgQvdsKTje+4Z3uV67P2UTBiGZntB3NJpEiiqP6bfLf3lbcDkJZ6w01bKDSlOm0Eb/O9ODJVbPRNgfycMLiI5HgaAS+jCF/Qg40GmrhNkLB5fk9iN0wiN86Gp4XBVDyJQfr68D8JkpH1+gA8C6e21JmPOaY8PT6MgrBe3D/vCidErUAk99l+D4gacKJFKxmRn6vzHyknsZlCzYMQAdiehV1JcRpM6MwurBulgNMIeVYPaoGLriJOOq1x1lUQyp1HK+I1pQ3hi/tz2t+Q4lN2vLwSQNXDHVAWKawIPA2HJ9vgcQjc96zilu1TiudeIneCH2n9pr4+1H1FRekuah/vgodBcGt17cejHTL/zNzz1YnJ2qgwUfomlpMrenNqRS9irAYRNbcj0ZaDiDDrRbBhB7wnqLFBTxm3sUqsG9kaR2151usqCslltCLOo+rIEYiTkTVaCZ9pbdm1fAAJm6dy/dQSXuc7U3PXE+55wT0PKN0Ad13hhg3Sq4so39uctyemViWtFKt/dZC/1yBZnWeUP44hxXEgBy27EbN4MIcsOuM0qjWBU9XYINOAYfJ4j1MjfHZ3osz7E2M1mN0L+7N1Zjc2TmmL+zhVXMcoCQTJSFqvq4DraEXWarfCYXgrHLRb4ThSHsef5XEY0QpHndasH6vEDqvuSK9YQJER5VHfcd9dhSs7Rj/4PXm/+jOKJ0TfTPYiwa4vsVZdObpsAPvmdyJwegc89JQFEjZP10CWQqZpEDxNgyADdQKnqhMwVY2AKWoEGmgSatyRiLk92WMxsE575vYm2LATnvpquI5RZp1Oa1zHKOIiM6+RdfnD9v2pSjeBwimUR8lxb4MyD+ImwnlR968O9HMNcnflvVNBxsQu6kasVReOLvmJY1Zd2D23O3sW9ubA0uEcXDaSKMvBbDbpitdEDdzHqeChp0TgFDWCpqix5VeCNk0U4z9ZIpAm0x4ZOQFT1Qme3pZtMzuzc35voi0GErWwP2Gm3SmOMeDVOQN4uusfBDyNGwE3Vkg5IPruczJ/1XIeB1TvXtqPsyt+YvecDuxf0IkDCzoRMF2LyFnt2DmzHWHTNdg6TZ3ImW3ZPqMNe+Z1Zr9VXw5aD+OA9Qj2WA5mq2l3Nk1ti+9ECX4TVPEZp4yHriL+E8UCSd5jldk4QRUZSXUapMab1DnC8vkwvBk39hnz0E+Lt/vqw9VFSOM7nfqqQD/VmGzWpSyCSLOOnLLuTtjMTsTM60ikaTtcx4mF7ziLzhxa2IldM2VktGW7kSY7ZmgKpIRMlhBqoEaYoYZATJRZByJMO7J1Rhf2Wg1m/1JtYb7YPqcHIYbtCTTQYNOkOkI2T1Ontmgu3FgCF0Sk26hwZlVHao9+R02sHFxbwt+uBRwVNZMtWTHzOxFr2YXtZr3YN7+jYOse+qq46ymzzUiT/fM7csSiM1Gm7Qk3bMMOozYcsezMXjMtIma0YZdpO6HOwYV12iOrHzW7HVFz2rNnjhbRc2WpAzELugiac8h6GAetR8AV0zqgp0Rk2Slw2nYA9/aOp2KviNrMiXzcJz/3UwP31cpIaD2g5kEQJxZ3JXxme6IsBglCBxq0Eez8yLJ+nF+rwxnH8RxZrcduy8EEz/gRv0nqhExTF+rGmv/I8UVdOG7VhdiFP7LXrAN7ZrVHVi7TnliLH4kx0yJ8ukxz2gh5GUH7F3SEvMlQZIr0mIjCda056aBDmkMHPuyS40N0KyrP9S75amA/1RBpPZ1f5zkLoykb+d3m/QiZrkmoSWdcxypz3m4o51YP5rzdEBIdhpFoP4SENYOJXzOYEyuHcNJuNCcd9Dm0UpeI+X0JNtQSVokI03YcXPijQOzJJd04ubirkD+2qAuHF3Zi/7wOnFrRFTLGQu44qg+KKHZT4LzbJHLX9+H9kcG83tqE2pQhVZ+S+6uVkTsxLX23iTD5Rc5qT+TcbvhPUUdms46jFEhx1+eisy7JbnokOeuSsHYkF51+Jt5emwQHbc7aDub4sn7EWvXk5PJ+JMgIchjOBUddzq2bwAmHCey3HsF2sx5sMWpPmElb9s7ryNFFXcnz7w9pk5Gm9eFjtIicdWKSvAzIdRvC+yQbXgS3QJren68G9lMNUWL1NtqmPztM2wvANxu2ZZNsWTPpgut4CWdd9En2nUH6JhPSfKaR6jWZNK/JJLuNJ8FJh/NrtDlnN4x4hxEku47hsstoLjmPItFxpKA9p1cNEjQowX4oF9YM4bz9CE7bj+G00yTuHx4FWWZIE+V5HykiYVVbLm/QI8d1MO9TPSnbJI80tevfTMCtNdJA43aEzmiD32QN/Keo4TtRjO9kTbKD5pK3eT5pfsYcXaVNxNzuhM7sxG7Lvpxap0ey3wwyAmaSsWkGGX7TSfeZSorHRIGgVM+JXHYdy2VXPRKddISUtG4Ul1x0fyVoBB8SB0CeGdUn6vEq9AdiLbRIdBhMjms/PmRs4rG3ErWX2kg/NXBfXEa2+fcnVigO45Y9MnvdbKhJsFEnXPVU8Bingte0TlzZvuQfqTBskUBGfuhC8rcsJD/UnDQfI06tHcvO+T0JmaFF5IJeHF87hsu+MmJmkek/k8yNRgI5Gb7TBILSvaeQ5jWJVI+JSNO7Q84QPsQ04L5PC3bPbs+5lT256tmRtwn2PHBXofKU4scvBvupBiixLawpXAQ3VhFm3EZYnyPm9cFVTxmHn1uTH7aIojArrmyz4Mo2SyEv+124zZLcYDPSvQ3I8JlObtAcisIWkb95vpDP3mTCJZexHF85lN0W/Qgx7kj43B4csRtFko8RGYGzSfUx5KLzWEhrA6mteLm5GSVrFQkzacdp6+68CG3K09DB3HMT83J3y8xPyf/FZdwNLH93ui/l+ZaEGmoKLuuuhQOwHylPmvcUklzGELukN5FmnYmy7MfJdRNICzQjb6sFhVvNubJ1IVe2mdcRFPYrQeGLKApfROE2Kwq3WlAUvpi8kHnkBc8lN3A2mRtNSNgwjeglQ9hs0gkuyyNNlKPMX56s5cqEzerMySVdqYhV57aLmEchqtz0VJn+xWA/1QA3Hfjl+E/cODJZ2NRs0JNtXzuQHzCdgkBDCoOMKAyaQWGQMQXBxuQFGJLuNRGZbR+3GcruhT8RZdWPk07jSfWfRe7m+WQHmJLkPJocf2OKti6gSCDJgqJ/IUhGzNUdpkjjW/AmojGPfRS5aKnCTvPelG5uztsLFpQ4Sag425QD0/+G/QAuogYUTqXiojbSK3N4l2pE6T49CgJHU+g/kYJNkyjwn0yB/xQK/KeS729AQcA0CgKmk+k9gZyNU/9BkIycgmATsjcZcs5xNNFW/QRiTqwdS5KnAZc9JnPReQxZfobkB8+mcMtcrmxdwIO9utRe6MwjLyUeuCsTN1uFY6t7w/nWFDmqkeegxqPIFtmfGrwvKuNYi7akj3j9/kw3yJuNNFmP2sujIG+SsCWlYBLk6yM72n4br8vNiOGkuQ8lZf1IUlxGcsK6J6dX9iNl/SjS3MeQ7qFH/qapZHrpk+auR4aXPjl+UwUtyvKdQqafAacddNhj2fdXYkaT7GvIyyPtqTw1kgcbVCiyUWX3zNZwsR7XN/Uhe40arw6LubxGo9UXgf3tyxSLGlAyL722xJrynMVUX7HE16gZhy0akWfTkhJrFa5YqXNjlQZl/lpUxHVHmtwfsgZD9iDI6geZvai81IPncT25s2MoVwLGku05hjQ3HbI8x5LpMUbQnlzfCWR7jyfDQ49Ut9Hk+k0WtEdmWnXJiMpzTXgYps2tsLFUFSzi5QVjSnx6kGGnRrazOkW+kl2/lf+L8xxTHkjWKLizjhMu7Zjbq+En09IhDQmc1pD4pU0ptlGkxFrCtZVteOSlxfs9WtSeaQNJ6pAqgTQlSG0JKT9QGd+M5wfbczN0MPk+uiSvG845m36ku+mQ76tPrs84gaQ8P5mJTUZ6sR6V+avh2VHBC8xaq0zaajUu2ahRGqH1/IsB/7YBbntp1N50+eXJiXGY9/s08M8RIiuf36ch9joN2TO7ERkrWlGySpUSGw3ueWrxZmd7qo8oIj3TABLrwSURJNUl2Qz/4URLHu36kUK/QaSt1ybPeyx5PnpCnaoSO6pzlgou71krCYmr1Lga2vUXF5fPnyb/Ftcf5sFFjns+Jz9mLMJzYoNPjvjvAf+jZ1YDGuKt/wMnLZpRaKvINTsJdz00eLVTncpYRWqPNkJ6Wg4S/0mKjJzqC98jjZej9sp8fjmoTaatKvFLJCSu0bz4h6D+bAUe+RvzYKM0JbT/Vwf+e8TM692QVcMaEm7UhMvW8pTYq3DHQ5kXEc2oPStHzRE5ao/KURP3A9JcHZLtO9aetpRcOLdEXfxnsf1uPR5vU+BRcNm7/GUsGfLDfxT87xFj3rchwdN+qDORVEXIMeRj8lTyXSTxvwvozz4E6vF0W9Sr86ZsMW38zQD/X1KiZ7egOl4OiiZAqQc1iYN4ENCc2xsULvxZjJ+tR1nEGJ5ury2JnYxMBf+302/hWzbyJR6KvD/egpvhI3i7/Tuk2Wa83ylHvpMqd1xU/joBPN/RjGe771be8WG1bpNvCriM/FDTRpDclJqsftwIUuPqBgkP3FtRcW4iz4Obk7pKTMFatX+PgJrjOpOlaWPuVt/wPsjzKA469/jmgM/r1ZDSSAVIU+Rtoj43ApS56i6hxEFCnrUKbw7qkWUnJstWIr28UvLTZ1X7tw842UaFq2ueVWQaI30RQ8VNJxYP+vpL25eazfpxjXh1UAw5/SiLac/NQCWuuospWSvhuKmYuOmqXAvUIWmxhCRzybvfYvxsnltLTsiiMGoKLagsXEFl6RakL/YjLdtJzW1PPl53IXfPaILMlLAa+N+bA5IcGkF6R6rzTHi8o0kdeA8xRWskRJtoEDK9DVumS7gTNZ2khRKe+TUp/yzo3z7gnutBygvg5VF4sh2e7uZ64AQqttaHixK4agyPQqBsJzzeAo8CqSixoyhahy2zm7J40N9LyoqhDXkS3ogPZ3+kPH4QTyIaU+ShxLtz3Xl2yki4O9g7rwN7zLTYaqjO3WhjcherUb77+4rf4vxsnmKXBrw6DmW74IE33FrEx8uLuLq6pezmpM71lLmg6QqQNwyuz4eH/lAWBY+3Upk5nbdHFPkQP5RrMdpsX6iE9ZCvQ8rx1a0gayAUm/E+toEAvtivM9xYAE93QIoyl+zE7JrdXjh3tNdR5O4eAwptJVTur//nj7zJHxrHnZVwUQGOi+B0Bx57tkQaI4KLTSBfG4qn14G/tQTurIDSNVRc28C7tLl8zDal9sZqeOAP9/2pTOzFh8Mi3u4XUeIvR+S8Riwb+ucdJ9me4uW+lpAzjJrsWbw/LOJpZCNynZTJcWrC68ND+RjbgBuOylx1USDAQAMn/faEzOzO9fAJFK+TUHnou+rPjvq/PpBFXZI5vLx2r4iKnfV4ubkRH4/1Ya+JOon2PckO0ub5RVNqbi6HuzYIZF2bBaXr4LYtPAyEhyHUXl3Cm/NDeRSjyvujSkhTxyItXAZ3veDGcrhqQXWyNqU7NNlrpcCq4f8/KVtNv+djnAhp0Uye7/iR97EiyiJ/4HawAmcWqnLPvxUZtgo8iRzCnZDveR78AyXu8sTMaYOPvpiiAF1KPMVUxsrV/CvOP/xdFafR5120Og885SkJ0iNqTieyNowUUvr64aS5DCfDbQSJawdy0b0HtXfd4MUBeORP+fmfebOvK1wzg1vL4cMV8h0VqI6qR9UuER92yPF6uzKv4qbwPsed2pvroWQ+FBlSmzGeh9G9eBStQe1FTaquulCb1omq7AkUeyqTYafMiXltcdWT8Gi3FkWrlTm/Rh2H0RKOrNbh0LyWvN/ZmOiZKmS7DuR6gBJVR+rV/iHgT1Ugf+RbmcrX5piQvbo3Cf7z2LagH/7T2hC7pCeJ9oNIWTeUXE8drkZOhId+cFtmEh489GpBzfEOkK4KKY15ubUF+atUBI16tKklt9wVKXRUJd1GjeSV6rxKsaP6ljeV1/youBZAzQ0n3mYuhbwxfEieT9EGMVn2YrYbqhNlpsV6PQm3tyhzYKGYwFm9hbPDrUaarNRWIniKMo929CXVthv3QltQESf31878eRI9kvueUDyVstDenLcdQJ7XKPL89CnYNp/sHdbEOU0icEYnwky14PZyqi6NRJrQAzI78ca3Vd0W9YyIiiQzoo3EJFmpUOAoJs1GXQAuAy9LvDwCL2PhaRQ8iYDbjnDPF+mFDvwS3pAHHkqk2YiJNe8g3A47jRbzLFqZi24/E2bcVgiOkEWSrNBWYouBhIfb+5G6TItHYY15e0D01299uB9Uwf1gpPdCOTZDhRx3mRmMIHvDCDJdtcly0xbMImfjZMrTpvLxeFuqDisJK8ZTNwVZGBvEipAm6BI3U5Uji7pz0a4fp5f1JM6iE8fMNUm0VufVxbnw+hy8OllHRtkeeHyAyn0i4SDjjosql6wlnF6gQbhJO1z12yLN02ObcRuCDTSEyJGAKeosH67IgdmtiTCUJ32JJneCWvM6piGQ+NfC5LhiakBmT8jV5ZFPO44u/olkp8GkOA0hY/0wzq3qS5xldy7Y9CV1fR8+Hq8PSQ247tyc3MVKSPeLqI4S8X57fdKs1Iie14lD5l2ItexKkn1/ji/tTsLqPiQ69IV76+DmIkhtAScbU3VyCO8j6/PEV4Gc1RLOm0vYZtyWXea9ibXUoDRM9R/xRLLRXzZcibOuBrz1b8I6XUUumkm4sUmFihwLKm6HUOyi2PRTpv6HZaT0r+a0iKrLuly2H87h1brsmN2JQ5bdSLTrR9o6GSGDiF/dF+ehLXns14jK8AbctpfnkVczwe5LvVuT5dSfBG9jUrdYsN9Gh4Bp7dg5W4tTy3oQb9uLmuJZcGUyXP4Ojv46WR4cSZGjKgkWYvz1VbngPpUAA02OWEkoDZXgpa+G7yQ1Npn0IMayLxX7G+M+RhHz/i04OE6Zqh1y1ObMI99ZTOJfJuDs0EXSgwpIY+S46Sgh3lY22iPIDpxBXsQy4n1mCpcN203bC7E6XrqK7DVpS+ICCWkWEg7OaY37SHmCJ0o4vawHCba9iLfpSeKa/qR4TiR7qwUXvE2IWNiHLbIokLlKcK4xHyPleHTQmAsLxJyfK+bMXDUhpiDcpC1e+hJeJ5hzdL4ip1b2p8StNe/2NcFnvLIQISa7earO1ac2aSS/hDUkz17MYxdx4z8c7X+tQHLvYTK3t6ZkJe9ODeLp3t6ct2rFXlNVji7qRtKaflxy6M8lhwGcsx/OeXcj0rZYEGs3ms3GWoQYaOCvL8Z/vCoeOopCJMfJpd2RBTPEzNHixJKunFvx0z+S7N4/xc+ICtlReYYWxDYm3lxNuMG5ul7CdhOZn68pTHrbTbVId2hPnrsmvvqyoElFVg2Xx1VHnuueAynfJcfbHU0o9VCk2FHy16LKuWnRhbeX6/z/0nXU3t3AlZUdqS52hJvW1OQa8iB6GGdWtCXKVJOgiRIiTdoJ8T1BkzSIWzmCjJD5xHsbE2nehy1Gbdhu3IadJm05ML8jR626CBeVZ6y7C9+nl3YjzvxHktx06vYjt1Zzc9dMit3FXPNV5ZC5Cpsmq3PMdihbjLWEwMn1Y5Sx/7kuYDLWrCVPd+pTtEidx57ylIW057K1hIQVag8Q/cX/F/HQ76oQj/vQB+7Y8nxbb9KXKCA9KIJL9SGnN9xzhiehUOpIeeYcSrYO4Zx1O84s7865lXUjLAuPO7OqPyneU0kJMCNuzWiCjLRwH62I92hFtkyRsHeOFjuMNNlmoA73N8ODzdSWBlLkocLdLfKUbmkpxPd4jBezfqzsil0Zy4GtsB/RilLfFtwLG06xnYQri9TJXaxKoe9g4heKw/5Vs/+t36QPaE72j3BOBHEiapOmUGyryC+h30O8CC7Xhwwx5A4kx6U9GY5duRUzjyfHl/Iqpi+Vu77n2bbvObmkCd6jmrN5kphtBmqsH9aCdUNbssWoK6ddpnDBYzo7zfsKcQPeY5XICx8GOTqQP5l8tw4829mQl9FybJysKoy853gVrIfK46XXio9Hf+JGkCZXXSUCAVkL1KQJhmrjsp16DPi3wH6uMmdFvsSKnlXtEknLApty06c3J8zFO6QxoisUjqvh6iy4sfD/cW5kDk6ajRrXXFV5sbs31akzoXgSpLWk4lQ9Crwast9MgUMLOnJqaTchyYKbZKZzeMVwUjdOg/hmsnBWXl22490hEZXHRKQ71wVJrx6hQOQ0RapSDXgY1pxrm1QEAlItxU8OTO/S4HNYvrg80UVU/45fL83fNgQu9W9G/Nw7xUZzS/JK9afJK9WlMgIybdW44abE08DmfIioB5d/vcBIaArpAyF7LMS3QXr4O8o21ydpeTP2zVZn31wt9sxqR8X5MYIvwdnu3A5oBQkiSkNacmBxMy6vUuFjgg6v99bjYVgLgYAEC9UvU/ffgvrSvGzdzbMTT7rtqXjqWXDTDxW7ZNtrUd02+4gIDomQ7hNRu0fmLMlRdUiN6vPa1J7sSVVkU575tqDYQYWaY32p3Fqf2xG63A9tRfXu76hNn03KCgk1J0UCAXdDWkrPzhUP/lKZ/9b3hXDZoyIxB0TLaqNEBdW7RTUVkTIvUY43WxvwPKQJT/xbcM9Hnjs+YoQ/Q8hOnu6uR5o7j5rCNZA/kZpsc14EtaDATsytjc1IWaZUdmqp1v/NP0/iIqpfFtTkpwe+8oG3Nig9vrJOVZprLxHmjtrnxxCO6GRHcLft4OlRSB3E+8jveOytSPISCWfniLP+1lH7bzR+1ka5SfJKtXGPD41N4KEvyJZf2Vb7rhs16cZCsNM1R1XOzxNzykTs+9+Q8T/Sp3DrfGeVlAIdYfKTHqrPx5TFwuYo0UoiPTdPte9/RJD/diekDmpEomis9IDo+LPg5h/S12g9/zts/n8ARSGaKxy7vngAAAAASUVORK5CYII=;" vertex="1" parent="1">
                    <mxGeometry x="205" y="160" width="64" height="63" as="geometry"/>
                </mxCell>
            </root>
        </mxGraphModel>
    </diagram>
</mxfile>